<svg width="821" height="218" viewBox="0 0 821 218" fill="none" xmlns="http://www.w3.org/2000/svg">
<rect width="821" height="216" rx="15" fill="#111112"/>
<path d="M46.189 72.1281H30.1387C24.0254 72.1281 19.0696 77.0942 19.0696 83.2201V185.823C19.0696 191.949 24.0254 196.915 30.1387 196.915H46.189C52.3023 196.915 57.258 191.949 57.258 185.823V83.2201C57.258 77.0942 52.3023 72.1281 46.189 72.1281Z" fill="#22C55E"/>
<path d="M115.925 19.2552H99.8752C93.7616 19.2552 88.8059 24.2214 88.8059 30.3475V185.823C88.8059 191.949 93.7616 196.915 99.8752 196.915H115.925C122.039 196.915 126.994 191.949 126.994 185.823V30.3475C126.994 24.2214 122.039 19.2552 115.925 19.2552Z" fill="#22C55E"/>
<path d="M185.659 120.749H169.61C163.496 120.749 158.541 125.715 158.541 131.84V185.822C158.541 191.949 163.496 196.915 169.61 196.915H185.659C191.773 196.915 196.728 191.949 196.728 185.822V131.84C196.728 125.715 191.773 120.749 185.659 120.749Z" fill="#22C55E"/>
<path d="M302.789 155.244C302.789 160.247 301.573 164.47 299.14 167.912C296.708 171.354 293.15 173.971 288.469 175.761C283.833 177.505 278.142 178.377 271.395 178.377C266.07 178.377 261.48 177.987 257.625 177.207C253.815 176.472 250.212 175.325 246.816 173.764V159.788C250.442 161.486 254.504 162.955 259.002 164.194C263.546 165.434 267.837 166.053 271.876 166.053C277.201 166.053 281.033 165.227 283.374 163.575C285.715 161.876 286.885 159.627 286.885 156.828C286.885 155.175 286.403 153.707 285.439 152.421C284.521 151.09 282.777 149.736 280.207 148.359C277.683 146.937 273.965 145.238 269.054 143.265C264.234 141.337 260.172 139.409 256.868 137.481C253.563 135.554 251.062 133.236 249.363 130.528C247.665 127.774 246.816 124.263 246.816 119.994C246.816 113.247 249.478 108.129 254.802 104.641C260.172 101.107 267.264 99.3398 276.076 99.3398C280.758 99.3398 285.164 99.8218 289.295 100.786C293.472 101.704 297.557 103.058 301.55 104.848L296.455 117.034C293.013 115.519 289.547 114.28 286.059 113.316C282.617 112.306 279.105 111.801 275.525 111.801C271.349 111.801 268.159 112.444 265.956 113.729C263.798 115.014 262.72 116.85 262.72 119.237C262.72 121.027 263.248 122.542 264.303 123.781C265.359 125.02 267.172 126.259 269.742 127.499C272.358 128.738 275.984 130.275 280.62 132.111C285.164 133.855 289.088 135.691 292.393 137.619C295.744 139.501 298.314 141.819 300.104 144.573C301.894 147.327 302.789 150.884 302.789 155.244ZM348.642 165.296C350.753 165.296 352.841 165.112 354.907 164.745C356.972 164.332 358.854 163.85 360.552 163.299V175.554C358.762 176.334 356.444 177 353.599 177.551C350.753 178.102 347.792 178.377 344.717 178.377C340.403 178.377 336.524 177.666 333.082 176.243C329.64 174.774 326.909 172.272 324.889 168.738C322.87 165.204 321.86 160.316 321.86 154.074V113.109H311.464V105.88L322.617 100.166L327.918 83.8491H338.108V100.786H359.933V113.109H338.108V153.867C338.108 157.723 339.072 160.591 341 162.473C342.927 164.355 345.475 165.296 348.642 165.296ZM405.923 99.3398C415.562 99.3398 422.836 101.474 427.748 105.743C432.705 110.011 435.183 116.667 435.183 125.708V177H423.686L420.587 166.191H420.037C417.879 168.945 415.653 171.217 413.358 173.007C411.063 174.797 408.401 176.128 405.372 177C402.389 177.918 398.74 178.377 394.425 178.377C389.881 178.377 385.819 177.551 382.239 175.898C378.659 174.2 375.836 171.63 373.771 168.188C371.706 164.745 370.673 160.385 370.673 155.106C370.673 147.258 373.587 141.36 379.417 137.413C385.292 133.465 394.15 131.285 405.992 130.872L419.21 130.39V126.397C419.21 121.119 417.971 117.355 415.493 115.106C413.06 112.857 409.618 111.732 405.166 111.732C401.356 111.732 397.661 112.283 394.081 113.385C390.501 114.486 387.013 115.84 383.616 117.447L378.384 106.018C382.102 104.044 386.324 102.438 391.052 101.199C395.825 99.9595 400.782 99.3398 405.923 99.3398ZM419.142 140.58L409.296 140.924C401.218 141.199 395.55 142.576 392.291 145.055C389.032 147.533 387.403 150.93 387.403 155.244C387.403 159.008 388.527 161.762 390.776 163.506C393.025 165.204 395.986 166.053 399.658 166.053C405.257 166.053 409.893 164.47 413.565 161.303C417.283 158.09 419.142 153.385 419.142 147.189V140.58ZM486.199 165.296C488.311 165.296 490.399 165.112 492.464 164.745C494.53 164.332 496.412 163.85 498.11 163.299V175.554C496.32 176.334 494.002 177 491.156 177.551C488.311 178.102 485.35 178.377 482.275 178.377C477.96 178.377 474.082 177.666 470.64 176.243C467.197 174.774 464.466 172.272 462.447 168.738C460.427 165.204 459.417 160.316 459.417 154.074V113.109H449.021V105.88L460.175 100.166L465.476 83.8491H475.666V100.786H497.49V113.109H475.666V153.867C475.666 157.723 476.629 160.591 478.557 162.473C480.485 164.355 483.032 165.296 486.199 165.296ZM564.823 155.244C564.823 160.247 563.607 164.47 561.174 167.912C558.742 171.354 555.185 173.971 550.503 175.761C545.867 177.505 540.176 178.377 533.429 178.377C528.104 178.377 523.515 177.987 519.659 177.207C515.85 176.472 512.247 175.325 508.85 173.764V159.788C512.476 161.486 516.538 162.955 521.036 164.194C525.58 165.434 529.872 166.053 533.911 166.053C539.235 166.053 543.067 165.227 545.408 163.575C547.749 161.876 548.919 159.627 548.919 156.828C548.919 155.175 548.438 153.707 547.474 152.421C546.556 151.09 544.812 149.736 542.241 148.359C539.717 146.937 535.999 145.238 531.088 143.265C526.269 141.337 522.207 139.409 518.902 137.481C515.597 135.554 513.096 133.236 511.397 130.528C509.699 127.774 508.85 124.263 508.85 119.994C508.85 113.247 511.512 108.129 516.836 104.641C522.207 101.107 529.298 99.3398 538.11 99.3398C542.792 99.3398 547.198 99.8218 551.329 100.786C555.506 101.704 559.591 103.058 563.584 104.848L558.489 117.034C555.047 115.519 551.582 114.28 548.093 113.316C544.651 112.306 541.14 111.801 537.56 111.801C533.383 111.801 530.193 112.444 527.99 113.729C525.833 115.014 524.754 116.85 524.754 119.237C524.754 121.027 525.282 122.542 526.337 123.781C527.393 125.02 529.206 126.259 531.776 127.499C534.393 128.738 538.019 130.275 542.654 132.111C547.198 133.855 551.123 135.691 554.427 137.619C557.778 139.501 560.348 141.819 562.138 144.573C563.928 147.327 564.823 150.884 564.823 155.244ZM579.97 168.463C579.97 164.699 580.934 162.06 582.861 160.545C584.835 158.985 587.222 158.205 590.021 158.205C592.821 158.205 595.208 158.985 597.182 160.545C599.201 162.06 600.211 164.699 600.211 168.463C600.211 172.135 599.201 174.797 597.182 176.449C595.208 178.056 592.821 178.859 590.021 178.859C587.222 178.859 584.835 178.056 582.861 176.449C580.934 174.797 579.97 172.135 579.97 168.463ZM659.076 113.109H640.556V177H624.376V113.109H611.915V105.33L624.376 100.579V95.2778C624.376 88.8062 625.386 83.6655 627.406 79.856C629.471 76.0464 632.409 73.3154 636.218 71.6631C640.074 69.9648 644.664 69.1157 649.988 69.1157C653.476 69.1157 656.666 69.4141 659.558 70.0107C662.449 70.5615 664.882 71.2041 666.855 71.9385L662.656 84.1934C661.095 83.6885 659.351 83.2295 657.423 82.8164C655.496 82.3574 653.43 82.1279 651.227 82.1279C647.555 82.1279 644.847 83.2754 643.103 85.5703C641.405 87.8652 640.556 91.2158 640.556 95.6221V100.786H659.076V113.109ZM758.216 99.3398C766.753 99.3398 773.179 101.543 777.494 105.949C781.854 110.355 784.034 117.424 784.034 127.154V177H767.855V130.046C767.855 124.263 766.73 119.902 764.481 116.965C762.232 114.027 758.813 112.559 754.223 112.559C747.797 112.559 743.162 114.624 740.316 118.755C737.516 122.84 736.116 128.784 736.116 136.586V177H719.937V130.046C719.937 126.19 719.432 122.978 718.422 120.407C717.458 117.791 715.967 115.84 713.947 114.555C711.928 113.224 709.38 112.559 706.305 112.559C701.853 112.559 698.296 113.568 695.634 115.588C693.018 117.607 691.136 120.591 689.988 124.538C688.841 128.439 688.267 133.236 688.267 138.927V177H672.088V100.786H684.687L686.959 111.044H687.854C689.415 108.382 691.342 106.202 693.637 104.503C695.978 102.759 698.571 101.474 701.417 100.648C704.263 99.7759 707.223 99.3398 710.298 99.3398C715.99 99.3398 720.786 100.35 724.688 102.369C728.589 104.343 731.503 107.372 733.431 111.457H734.67C737.057 107.326 740.385 104.274 744.653 102.3C748.922 100.327 753.443 99.3398 758.216 99.3398Z" fill="white"/>
</svg>
